<svg width="127" height="130" viewBox="0 0 127 130" fill="none" xmlns="http://www.w3.org/2000/svg">
<ellipse cx="63.5" cy="65" rx="63.5" ry="65" fill="#8D71FF"/>
<path d="M77.9987 58V42C77.9987 40.4087 77.3666 38.8826 76.2414 37.7574C75.1162 36.6321 73.5901 36 71.9989 36H43.9998C42.4086 36 40.8825 36.6321 39.7573 37.7574C38.6321 38.8826 38 40.4087 38 42V86C38 87.5913 38.6321 89.1174 39.7573 90.2426C40.8825 91.3679 42.4086 92 43.9998 92H71.9989C73.5901 92 75.1162 91.3679 76.2414 90.2426C77.3666 89.1174 77.9987 87.5913 77.9987 86V72C76.9378 72 75.9205 72.4214 75.1703 73.1716C74.4202 73.9217 73.9988 74.9391 73.9988 76V86C73.9988 86.5304 73.7881 87.0391 73.413 87.4142C73.038 87.7893 72.5293 88 71.9989 88H43.9998C43.4694 88 42.9607 87.7893 42.5856 87.4142C42.2106 87.0391 41.9999 86.5304 41.9999 86V42C41.9999 41.4696 42.2106 40.9609 42.5856 40.5858C42.9607 40.2107 43.4694 40 43.9998 40H71.9989C72.5293 40 73.038 40.2107 73.413 40.5858C73.7881 40.9609 73.9988 41.4696 73.9988 42V62C75.0596 62 76.077 61.5786 76.8271 60.8284C77.5773 60.0783 77.9987 59.0609 77.9987 58Z" fill="white"/>
<path d="M67.9998 46H47.9998C47.4693 46 46.9606 46.2107 46.5855 46.5858C46.2105 46.9609 45.9998 47.4696 45.9998 48C45.9998 48.5304 46.2105 49.0391 46.5855 49.4142C46.9606 49.7893 47.4693 50 47.9998 50H67.9998C68.5302 50 69.0389 49.7893 69.414 49.4142C69.789 49.0391 69.9998 48.5304 69.9998 48C69.9998 47.4696 69.789 46.9609 69.414 46.5858C69.0389 46.2107 68.5302 46 67.9998 46ZM69.9998 56C69.9998 55.4696 69.789 54.9609 69.414 54.5858C69.0389 54.2107 68.5302 54 67.9998 54H47.9998C47.4693 54 46.9606 54.2107 46.5855 54.5858C46.2105 54.9609 45.9998 55.4696 45.9998 56C45.9998 56.5304 46.2105 57.0391 46.5855 57.4142C46.9606 57.7893 47.4693 58 47.9998 58H67.9998C68.5302 58 69.0389 57.7893 69.414 57.4142C69.789 57.0391 69.9998 56.5304 69.9998 56ZM47.9998 62C47.4693 62 46.9606 62.2107 46.5855 62.5858C46.2105 62.9609 45.9998 63.4696 45.9998 64C45.9998 64.5304 46.2105 65.0391 46.5855 65.4142C46.9606 65.7893 47.4693 66 47.9998 66H55.9998C56.5302 66 57.0389 65.7893 57.414 65.4142C57.789 65.0391 57.9998 64.5304 57.9998 64C57.9998 63.4696 57.789 62.9609 57.414 62.5858C57.0389 62.2107 56.5302 62 55.9998 62H47.9998Z" fill="white"/>
<path d="M60.8272 83.9998C60.5297 83.9996 60.236 83.9331 59.9674 83.805C59.6989 83.677 59.4623 83.4906 59.2749 83.2595C59.0876 83.0285 58.9541 82.7585 58.8842 82.4693C58.8144 82.1801 58.81 81.8789 58.8713 81.5878L60.3752 74.4258C60.4553 74.047 60.6436 73.6997 60.9172 73.4258L79.7566 54.5878C80.8998 53.4969 82.4192 52.8882 83.9994 52.8882C85.5796 52.8882 87.0991 53.4969 88.2423 54.5878C88.7995 55.145 89.2416 55.8065 89.5431 56.5345C89.8447 57.2625 90 58.0428 90 58.8308C90 59.6188 89.8447 60.3991 89.5431 61.1271C89.2416 61.8552 88.7995 62.5166 88.2423 63.0738L69.3989 81.9078C69.1258 82.1828 68.7782 82.3719 68.399 82.4518L61.2372 83.9578C61.1023 83.9854 60.9649 83.9995 60.8272 83.9998ZM64.1771 75.8318L63.4251 79.4118L66.999 78.6598L85.4144 60.2418C85.7893 59.8668 85.9999 59.3581 85.9999 58.8278C85.9999 58.2975 85.7893 57.7889 85.4144 57.4138C85.0341 57.0488 84.5275 56.845 84.0004 56.845C83.4734 56.845 82.9667 57.0488 82.5865 57.4138L64.1771 75.8318Z" fill="white"/>
</svg>
