<svg width="127" height="130" viewBox="0 0 127 130" fill="none" xmlns="http://www.w3.org/2000/svg">
<ellipse cx="63.5" cy="65" rx="63.5" ry="65" fill="#8D71FF"/>
<path d="M63.5 81.3636C64.0043 81.3636 64.4974 81.2224 64.9167 80.9576C65.3361 80.6929 65.6629 80.3167 65.8559 79.8765C66.0489 79.4363 66.0994 78.9519 66.001 78.4846C65.9026 78.0172 65.6597 77.588 65.3031 77.2511C64.9465 76.9141 64.4921 76.6847 63.9975 76.5917C63.5028 76.4988 62.9901 76.5465 62.5242 76.7288C62.0582 76.9112 61.66 77.22 61.3798 77.6161C61.0996 78.0123 60.95 78.4781 60.95 78.9545C60.95 79.5935 61.2187 80.2062 61.6969 80.658C62.1751 81.1098 62.8237 81.3636 63.5 81.3636ZM76.25 81.3636C76.7543 81.3636 77.2474 81.2224 77.6667 80.9576C78.086 80.6929 78.4129 80.3167 78.6059 79.8765C78.7989 79.4363 78.8494 78.9519 78.751 78.4846C78.6526 78.0172 78.4097 77.588 78.0531 77.2511C77.6965 76.9141 77.2421 76.6847 76.7475 76.5917C76.2528 76.4988 75.7401 76.5465 75.2742 76.7288C74.8082 76.9112 74.4099 77.22 74.1297 77.6161C73.8496 78.0123 73.7 78.4781 73.7 78.9545C73.7 79.5935 73.9687 80.2062 74.4469 80.658C74.9251 81.1098 75.5737 81.3636 76.25 81.3636ZM76.25 71.7273C76.7543 71.7273 77.2474 71.586 77.6667 71.3213C78.086 71.0566 78.4129 70.6803 78.6059 70.2401C78.7989 69.7999 78.8494 69.3155 78.751 68.8482C78.6526 68.3809 78.4097 67.9516 78.0531 67.6147C77.6965 67.2778 77.2421 67.0483 76.7475 66.9554C76.2528 66.8624 75.7401 66.9101 75.2742 67.0925C74.8082 67.2748 74.4099 67.5836 74.1297 67.9798C73.8496 68.3759 73.7 68.8417 73.7 69.3182C73.7 69.9571 73.9687 70.5699 74.4469 71.0217C74.9251 71.4735 75.5737 71.7273 76.25 71.7273ZM63.5 71.7273C64.0043 71.7273 64.4974 71.586 64.9167 71.3213C65.3361 71.0566 65.6629 70.6803 65.8559 70.2401C66.0489 69.7999 66.0994 69.3155 66.001 68.8482C65.9026 68.3809 65.6597 67.9516 65.3031 67.6147C64.9465 67.2778 64.4921 67.0483 63.9975 66.9554C63.5028 66.8624 62.9901 66.9101 62.5242 67.0925C62.0582 67.2748 61.66 67.5836 61.3798 67.9798C61.0996 68.3759 60.95 68.8417 60.95 69.3182C60.95 69.9571 61.2187 70.5699 61.6969 71.0217C62.1751 71.4735 62.8237 71.7273 63.5 71.7273ZM81.35 42.8182H78.8V40.4091C78.8 39.7702 78.5313 39.1574 78.0531 38.7056C77.5749 38.2538 76.9263 38 76.25 38C75.5737 38 74.9251 38.2538 74.4469 38.7056C73.9687 39.1574 73.7 39.7702 73.7 40.4091V42.8182H53.3V40.4091C53.3 39.7702 53.0313 39.1574 52.5531 38.7056C52.0749 38.2538 51.4263 38 50.75 38C50.0737 38 49.4251 38.2538 48.9469 38.7056C48.4687 39.1574 48.2 39.7702 48.2 40.4091V42.8182H45.65C43.6211 42.8182 41.6753 43.5796 40.2406 44.935C38.806 46.2904 38 48.1287 38 50.0455V83.7727C38 85.6895 38.806 87.5278 40.2406 88.8832C41.6753 90.2386 43.6211 91 45.65 91H81.35C83.3789 91 85.3247 90.2386 86.7594 88.8832C88.194 87.5278 89 85.6895 89 83.7727V50.0455C89 48.1287 88.194 46.2904 86.7594 44.935C85.3247 43.5796 83.3789 42.8182 81.35 42.8182ZM83.9 83.7727C83.9 84.4117 83.6313 85.0244 83.1531 85.4762C82.6749 85.928 82.0263 86.1818 81.35 86.1818H45.65C44.9737 86.1818 44.3251 85.928 43.8469 85.4762C43.3687 85.0244 43.1 84.4117 43.1 83.7727V62.0909H83.9V83.7727ZM83.9 57.2727H43.1V50.0455C43.1 49.4065 43.3687 48.7938 43.8469 48.342C44.3251 47.8902 44.9737 47.6364 45.65 47.6364H48.2V50.0455C48.2 50.6844 48.4687 51.2971 48.9469 51.7489C49.4251 52.2007 50.0737 52.4545 50.75 52.4545C51.4263 52.4545 52.0749 52.2007 52.5531 51.7489C53.0313 51.2971 53.3 50.6844 53.3 50.0455V47.6364H73.7V50.0455C73.7 50.6844 73.9687 51.2971 74.4469 51.7489C74.9251 52.2007 75.5737 52.4545 76.25 52.4545C76.9263 52.4545 77.5749 52.2007 78.0531 51.7489C78.5313 51.2971 78.8 50.6844 78.8 50.0455V47.6364H81.35C82.0263 47.6364 82.6749 47.8902 83.1531 48.342C83.6313 48.7938 83.9 49.4065 83.9 50.0455V57.2727ZM50.75 71.7273C51.2543 71.7273 51.7474 71.586 52.1667 71.3213C52.586 71.0566 52.9129 70.6803 53.1059 70.2401C53.2989 69.7999 53.3494 69.3155 53.251 68.8482C53.1526 68.3809 52.9097 67.9516 52.5531 67.6147C52.1965 67.2778 51.7421 67.0483 51.2475 66.9554C50.7528 66.8624 50.2401 66.9101 49.7742 67.0925C49.3082 67.2748 48.91 67.5836 48.6298 67.9798C48.3496 68.3759 48.2 68.8417 48.2 69.3182C48.2 69.9571 48.4687 70.5699 48.9469 71.0217C49.4251 71.4735 50.0737 71.7273 50.75 71.7273ZM50.75 81.3636C51.2543 81.3636 51.7474 81.2224 52.1667 80.9576C52.586 80.6929 52.9129 80.3167 53.1059 79.8765C53.2989 79.4363 53.3494 78.9519 53.251 78.4846C53.1526 78.0172 52.9097 77.588 52.5531 77.2511C52.1965 76.9141 51.7421 76.6847 51.2475 76.5917C50.7528 76.4988 50.2401 76.5465 49.7742 76.7288C49.3082 76.9112 48.91 77.22 48.6298 77.6161C48.3496 78.0123 48.2 78.4781 48.2 78.9545C48.2 79.5935 48.4687 80.2062 48.9469 80.658C49.4251 81.1098 50.0737 81.3636 50.75 81.3636Z" fill="white"/>
</svg>
