<?xml version="1.0" standalone="no"?>
<!DOCTYPE svg PUBLIC "-//W3C//DTD SVG 20010904//EN"
 "http://www.w3.org/TR/2001/REC-SVG-20010904/DTD/svg10.dtd">
<svg version="1.0" xmlns="http://www.w3.org/2000/svg"
 width="1238.000000pt" height="1238.000000pt" viewBox="0 0 1238.000000 1238.000000"
 preserveAspectRatio="xMidYMid meet">
<metadata>
Created by potrace 1.14, written by Peter Selinger 2001-2017
</metadata>
<g transform="translate(0.000000,1238.000000) scale(0.100000,-0.100000)"
fill="#000000" stroke="none">
<path d="M6197 10474 c-1 -1 -29 -5 -62 -8 -33 -3 -71 -8 -85 -11 -14 -3 -40
-8 -59 -11 -19 -3 -45 -10 -58 -15 -13 -5 -23 -6 -23 -3 0 4 -6 1 -14 -5 -8
-6 -18 -11 -22 -10 -5 1 -16 0 -24 -3 -8 -4 -52 -19 -97 -34 -46 -16 -83 -32
-83 -36 0 -4 -7 -5 -15 -2 -8 4 -15 1 -15 -5 0 -6 -6 -11 -12 -11 -13 0 -101
-44 -193 -96 -62 -36 -218 -143 -265 -184 -19 -16 -53 -44 -74 -62 -101 -85
-296 -291 -376 -397 -14 -19 -32 -41 -40 -50 -14 -15 -50 -67 -123 -176 -74
-110 -107 -164 -107 -173 0 -6 -3 -12 -7 -14 -10 -4 -39 -55 -106 -186 -51
-101 -53 -102 -82 -96 -16 4 -36 10 -45 15 -18 10 -207 67 -235 72 -11 1 -25
6 -31 9 -6 4 -26 10 -45 13 -29 4 -68 13 -101 21 -5 1 -10 3 -13 4 -7 4 -15 5
-68 14 -27 4 -59 10 -70 12 -12 3 -33 6 -47 9 -14 2 -41 6 -60 9 -218 36 -632
42 -800 12 -14 -3 -47 -7 -75 -11 -27 -3 -57 -8 -65 -10 -8 -2 -26 -6 -40 -9
-22 -5 -84 -21 -115 -30 -5 -1 -30 -8 -55 -15 -45 -12 -69 -20 -125 -42 -16
-7 -32 -13 -35 -14 -19 -6 -70 -29 -95 -42 -16 -9 -55 -28 -85 -43 -51 -26
-179 -106 -190 -119 -3 -4 -17 -14 -31 -23 -77 -49 -244 -221 -319 -328 -13
-19 -27 -37 -30 -40 -3 -3 -16 -25 -29 -50 -13 -25 -29 -52 -35 -60 -19 -26
-92 -182 -96 -205 0 -3 -9 -24 -19 -47 -42 -101 -120 -468 -98 -468 6 0 6 -4
0 -12 -16 -21 -21 -280 -8 -408 10 -108 21 -191 31 -245 2 -16 7 -39 8 -50 2
-11 7 -31 10 -45 3 -14 8 -36 10 -50 11 -65 65 -260 106 -380 116 -340 312
-724 545 -1065 141 -206 328 -442 463 -583 23 -25 42 -47 42 -49 0 -5 278
-280 331 -328 156 -138 194 -171 213 -185 11 -8 30 -23 41 -33 11 -11 45 -38
75 -61 30 -22 57 -43 60 -46 21 -21 179 -134 295 -211 50 -32 95 -62 100 -67
44 -34 359 -215 423 -243 17 -8 32 -17 32 -21 0 -5 4 -8 9 -8 6 0 56 -22 113
-48 57 -27 121 -56 143 -66 22 -10 49 -21 60 -26 49 -22 147 -60 230 -89 50
-18 97 -35 105 -38 8 -4 17 -7 20 -7 41 -9 108 -31 118 -39 6 -5 12 -7 12 -4
0 3 15 1 33 -4 37 -12 150 -41 212 -54 11 -3 30 -7 43 -10 12 -3 30 -7 41 -9
10 -2 36 -7 57 -10 22 -4 46 -8 54 -11 8 -2 35 -7 60 -10 25 -2 61 -7 80 -10
19 -2 62 -7 94 -10 33 -2 61 -7 64 -10 2 -2 13 0 23 6 11 6 19 6 19 0 0 -10
358 -7 454 4 32 3 78 8 102 9 24 1 46 5 49 7 3 3 31 2 64 -2 32 -5 82 -10 110
-12 28 -2 54 -7 57 -10 3 -3 17 -2 30 3 13 5 24 6 24 2 0 -9 307 -7 410 2 123
11 275 32 360 52 14 3 39 7 55 10 17 3 66 15 110 26 44 11 87 22 95 23 8 1 22
5 30 8 17 6 85 27 103 32 24 6 64 19 172 57 60 22 115 40 121 42 7 1 19 8 28
15 9 7 16 11 16 8 0 -6 120 44 225 94 39 18 72 33 75 33 14 3 328 170 343 184
9 8 17 11 17 6 0 -5 4 -4 8 1 7 10 109 75 118 75 2 0 26 15 52 33 26 18 59 38
73 46 15 7 38 24 53 37 14 14 26 22 26 19 0 -3 20 9 45 27 24 18 60 44 80 58
20 14 42 30 48 35 7 6 39 30 72 54 33 25 62 47 65 51 3 3 25 21 50 40 25 19
50 39 56 45 6 5 26 21 44 35 18 14 50 41 70 60 21 19 64 58 96 85 67 58 316
306 389 387 86 95 119 133 160 183 22 27 48 57 58 67 9 10 17 22 17 28 0 6 3
10 8 10 4 0 23 23 42 50 19 27 38 50 43 50 4 0 7 6 7 14 0 8 3 16 8 18 12 5
72 86 72 97 0 6 3 11 8 11 4 0 20 21 37 48 16 26 37 55 45 65 8 10 24 33 35
51 11 18 57 94 101 168 45 74 94 159 109 189 15 29 33 57 39 61 6 4 8 8 3 8
-4 0 10 33 31 72 21 40 64 136 96 213 32 77 64 154 71 170 38 85 132 413 160
558 3 15 7 37 10 50 2 12 6 42 9 67 3 25 8 54 10 66 11 52 20 213 20 344 0
127 -11 295 -19 310 -2 3 -6 30 -10 60 -4 30 -11 60 -16 66 -5 6 -6 13 -3 16
3 3 0 26 -6 49 -7 24 -13 51 -15 59 -3 16 -32 106 -42 130 -4 8 -7 17 -7 20
-3 18 -66 155 -93 203 -18 33 -33 61 -33 64 0 3 -30 48 -67 101 -88 126 -260
300 -374 377 -24 16 -46 32 -49 36 -15 16 -227 127 -285 149 -11 4 -31 12 -45
18 -126 52 -304 96 -514 127 -22 3 -82 8 -134 10 -53 3 -98 7 -100 10 -3 3
-11 0 -19 -6 -7 -6 -13 -8 -13 -3 0 10 -138 9 -148 0 -3 -3 -11 -1 -19 5 -7 6
-13 7 -13 3 0 -5 -19 -10 -42 -10 -86 -2 -139 -8 -144 -15 -3 -5 -11 -6 -19
-3 -12 5 -182 -17 -249 -32 -11 -3 -34 -8 -51 -10 -16 -3 -84 -19 -150 -36
-66 -16 -127 -31 -135 -33 -8 -2 -43 -13 -77 -24 l-63 -19 -75 151 c-41 84
-88 175 -105 202 -16 28 -33 58 -36 68 -3 9 -10 17 -14 17 -4 0 -10 8 -13 18
-6 18 -38 74 -48 82 -3 3 -24 33 -47 66 -139 206 -360 441 -536 569 -23 16
-43 32 -46 35 -3 3 -43 30 -89 59 -102 65 -281 152 -376 182 -38 12 -79 25
-90 29 -18 7 -47 13 -160 35 -68 13 -368 28 -378 19z"/>
</g>
</svg>
